<?xml version="1.0" encoding="UTF-8"?>
<svg id="Layer_2" data-name="Layer 2" xmlns="http://www.w3.org/2000/svg" viewBox="0 0 504.53 568.4">
  <g id="Layer_1-2" data-name="Layer 1">
    <g>
      <path d="m442.35,459.64c.91,5.89-1.47,11.26-2.56,16.81-1.43,7.26-2.93,14.51-4.44,21.76-.63,3-1.39,5.98-2.04,8.98-.9,4.15-1.98,8.27-2.58,12.47-.56,3.94-.6,7.96-.89,12.35.9-3.73,3.72-6.02,4.23-9.93.44-3.44,3.02-6.61,4.69-9.88,5.49-10.71,10.88-21.48,16.54-32.1,2.38-4.46,4.11-9.54,8.98-12.19,1.41-.77,2.93-1.31,4.4-1.95.29.31.58.61.87.92-1.19,2.4-2.34,4.81-3.58,7.18-4.56,8.78-9.1,17.56-13.73,26.3-3.57,6.74-7.48,13.31-10.82,20.15-1.89,3.87-2.83,8.19-4.37,12.24-4.5,11.87-11.87,21-24.53,24.76-2.41.72-5,1.24-7.5,1.19-8.02-.15-15.55,2.56-23.35,3.55-13.59,1.72-27.22,3.24-40.86,4.44-23.3,2.05-46.67,1.71-70.02,1.65-13.54-.04-27.1.22-40.63-.18-19.06-.57-38.1-1.71-57.16-2.44-10.44-.4-20.89-.64-31.34-.59-14.97.08-29.56-1.83-43.36-7.87-11.01-4.82-19.71-12.21-25.53-23.02-6.01-11.18-12.49-22.12-18.96-33.04-5.95-10.05-12.15-19.95-18.24-29.91-2.72-4.46-6.13-8.65-7.96-13.45-1.52-3.98-4.64-4.78-7.55-6.45-3.07-1.76-6.17-3.48-9.14-5.4-6.75-4.36-10.11-10.74-10.71-18.66-.98-12.79,1.62-24.38,12.05-32.88,8.51-6.93,17.33-13.49,26.02-20.2.77-.6,1.61-1.11,2.88-1.98-1.23-.6-2.05-1.05-2.91-1.41-9.03-3.74-13.85-11.26-17.22-19.8-2.12-5.39.64-10.33,2.89-15.09,1.56-3.3,4.87-4.06,8.06-4.99,3.48-1.02,6.9-2.27,10.35-3.41,1.65-.54,2.23-1.56,1.91-3.33-.43-2.4-.6-4.85-.93-7.28-.4-2.89.73-5.3,2.8-7.05,6.03-5.11,12.49-9.11,21.01-7.32.94.2,2.61-.46,3.12-1.26,4.11-6.36,7.38-13.07,8.91-20.64,1.45-7.16-.04-14.09-.58-21.13-.41-5.4-.66-10.91-.06-16.27,1.12-9.87,7.25-16.85,14.85-22.59,3.53-2.67,7.37-4.92,10.88-7.23-4.56-2.56-9.21-5.13-13.8-7.77-1.09-.63-2.14-1.42-3.02-2.31-1.6-1.62-1.27-3.16.89-3.98,1.07-.41,2.29-.45,3.46-.59,16.67-1.94,31.56-7.55,42.93-20.59,5.03-5.77,7.64-12.8,10.23-19.75,3.26-8.75,5.69-17.8,8.7-26.64,5.05-14.85,7.67-30.28,11.13-45.51,2.9-12.76,10.4-23.06,18.46-33.01,6.67-8.23,14.83-14.69,23.55-20.51,12.01-8.01,23.52-17.02,36.29-23.58,16.89-8.68,35.2-12.06,54.16-6.58,8.51,2.46,15.74,7.02,21.32,13.99,4.99,6.25,7.29,13.33,6.24,21.36-.09.7-.1,1.41-.15,2.17.38.08.67.24.87.16,8.5-3.28,16.5-.39,24.46,2.14,5.01,1.59,9.98,3.41,14.75,5.62,6.51,3.02,11.42,8.06,15.34,13.97,4.12,6.2,8.03,12.55,11.88,18.93,4.91,8.15,6.33,17.29,7.46,26.55,1.57,12.9,2.81,25.88,5.32,38.61,2.82,14.24,6.94,28.23,10.44,42.34,1.6,6.45,2.97,13.03,6.81,18.58,3.2,4.62,6.59,9.16,10.38,13.29,5.89,6.41,11.73,12.96,19.51,17.28.63.35,1.21.81,1.78,1.26,3.13,2.51,3.05,5.69-.4,7.72-5.36,3.15-11.01,5.62-17.34,6.09-.9.07-1.79.21-2.74.33,0,.38-.11.73.02.86,7.11,7.26,9.95,16.54,12.34,26.03.88,3.52,1.77,7.04,2.44,10.61.32,1.69,1.08,1.79,2.46,1.49,8.75-1.9,17.54,1.7,22.3,9.31,3.98,6.39,3.78,13.01.76,19.78-1.09,2.43-1.88,5.04-2.44,7.65-1.28,5.91-2.36,11.87-3.48,17.82-.12.66-.11,1.44.14,2.04,3.35,8.08,7.44,15.73,12.68,22.8,6.71,9.06,13.28,18.31,17.4,28.88,2.65,6.81,4.93,13.91,6.22,21.09,3.06,16.94-5.29,31.75-21.13,38.64-8.61,3.74-17.7,5.45-27.05,5.62-2.42.04-4.87-.45-7.26-.94-2.82-.58-5.01-2.1-6.12-5.1Zm-49.64,83.72c0,.11,0,.21,0,.32,6.61-.5,13.23-.94,19.83-1.53,3.82-.34,6.65-2.38,8.27-5.85.84-1.8,1.54-3.7,2-5.63,1.33-5.64,2.51-11.31,3.74-16.98.59-2.74,1.17-5.48,1.72-8.23,1.66-8.24,3.28-16.48,4.95-24.71.67-3.28,1.49-6.52,2.16-9.8,1.53-7.52,2.97-15.07,4.52-22.58,1.15-5.58,2.45-11.13,3.64-16.7,1.85-8.66,3.65-17.33,5.48-25.99,1.08-5.13,2.19-10.26,3.26-15.4,1.67-8.05,3.28-16.11,5-24.15,1.15-5.39,2.45-10.75,3.7-16.12,2.51-10.73,3.55-21.8,7.84-32.14,2.63-6.36-1.63-15.99-8.17-18.17-5.24-1.75-10.73-3.48-16.46-1.58-.62.21-1.89.21-1.97-.01-.8-2.19-2.54-1.3-3.93-1.27-10.27.25-20.53.58-30.8.85-17.9.47-35.8.83-53.7,1.4-11.99.38-23.96,1.21-35.95,1.5-21.61.51-43.24.59-64.85,1.15-32.8.86-65.59,2.03-98.39,2.95-17.63.49-35.27.55-52.89,1.15-11.5.39-23.08-1.22-34.51,1.34-4.02.9-8.23,1.07-12.17,2.21-5.64,1.62-7.73,6.11-6.29,11.66,1.22,4.7,2.19,9.47,3.18,14.23.9,4.34,1.67,8.7,2.52,13.05,1.39,7.08,2.79,14.16,4.2,21.24,1.61,8.07,3.24,16.14,4.83,24.21,1.05,5.32,2.11,10.65,3.09,15.98,1.6,8.71,3.1,17.44,4.73,26.15,1.66,8.89,3.44,17.77,5.14,26.65,1.63,8.52,3.19,17.06,4.86,25.58,1.2,6.13,2.6,12.21,3.77,18.34,1.92,10.04,3.28,20.18,6.86,29.85,1.97,5.31,5.48,8.84,10.89,10.08,6.72,1.53,13.41,2.72,20.53,1.9,7.45-.85,15.07-.16,22.61-.33,44.71-1,89.42-2.2,134.13-3.06,37.53-.72,75.06-1.07,112.59-1.58Zm-171.34-246.08c-3.09-2.71-6.72-5.12-9.37-8.34-10.98-13.36-20.07-27.73-24.21-44.9-2.74-11.35-3.02-22.45.55-33.56.5-1.56.24-2.37-.8-3.51-10.22-11.24-16.45-24.24-17.42-39.59-.28-4.51.08-7.78,5.35-9.85,8.57-3.37,16.53-8.3,25.27-9.84.93-3.09,1.45-5.96,2.62-8.54,8.78-19.45,23.44-32.24,43.93-38.23,10.28-3.01,20.6-5.88,30.91-8.78,4.84-1.36,9.1-3.59,12.27-7.64.56-.72,1.38-1.23,2.46-2.18.32,1.5.24,2.94.74,3.18,2.73,1.3,3.01,3.99,3.89,6.29,3.11,8.07,7.58,15.07,14.97,19.92,4.47,2.94,8.91,5.94,13.37,8.89,4.62,3.06,9.06,6.44,13.92,9.05,6.52,3.5,13.38,6.4,20.08,9.57.74.35,1.48.71,2.15,1.18,4.31,3.02,8.71,5.93,12.84,9.18,1.76,1.38,3.87,3.35,4.18,5.31.57,3.6.13,7.41-.28,11.09-.91,8.16-5.18,15.07-9.05,22-1.86,3.34-2.71,5.75-1.09,9.68,2.51,6.1,2.19,12.83,1.4,19.38-1.95,16.24-8.25,30.96-15.66,45.34-5.77,11.2-12.84,21.32-22.83,29.18-.74.58-1.64.97-2.46,1.45.27.29.54.58.82.86.35.03.7.09,1.05.08,19.98-.63,39.97-1.6,59.96-1.81,16.41-.17,32.84-2.16,49.26-.09.24.03.5-.13,1.27-.34-.77-3.33-1.39-6.67-2.32-9.94-2.22-7.87-4.13-15.92-10.21-21.98-2.89-2.88-5.86-5.68-8.88-8.42-1.51-1.37-2.35-2.9-1.41-4.8.98-1.97,2.72-2.42,4.86-1.91,6.47,1.53,12.77.59,18.96-1.53.63-.21,1.17-.68,1.24-.72-5.38-5.24-10.84-10.28-15.97-15.63-10.45-10.89-18.02-23.23-20.76-38.49-2.52-14.02-6.76-27.74-9.22-41.77-2.16-12.32-2.96-24.89-4.27-37.36-.82-7.78-.93-15.85-4.88-22.76-4.67-8.17-9.98-16.01-15.47-23.67-3.44-4.8-8.53-7.83-14.16-9.79-4.55-1.59-9.11-3.12-13.62-4.82-5.71-2.15-11.48-3.25-17.62-2.16-2.56.45-5.26.42-7.87.22-2.29-.17-2.64-1.49-1.35-3.34.59-.84,1.09-1.89,1.2-2.89.8-7.29-1.22-13.65-6.46-18.91-4.19-4.21-9.25-7.04-14.74-9.09-17.48-6.51-34.61-4.42-50.64,3.97-11.29,5.91-21.71,13.54-32.3,20.73-10.55,7.17-20.54,15.02-28.09,25.56-6.97,9.74-13.4,19.68-15.49,31.81-4.02,23.27-11.11,45.67-18.84,67.93-7.3,21.03-21.77,33.86-43,39.46-4,1.05-8.12,1.67-12.59,2.57.82.67,1.23,1.21,1.76,1.42,4.46,1.71,8.97,3.31,13.41,5.07,1.26.5,2.35,1.41,3.52,2.14-.89,1.01-1.62,2.24-2.69,2.99-4.61,3.22-9.54,6.02-13.95,9.49-6.91,5.45-11.97,12.38-12.9,21.37-.51,5.01-.37,10.19.29,15.18,1.69,12.89.81,25.38-4.39,37.41-.34.78-.51,1.62-.84,2.73,46.83-1.52,93.21-3.02,139.59-4.52Zm139.16-97.28c-1.15.94-1.91,1.56-2.67,2.18-9.42,7.69-19.92,12.68-32.34,12.53-7.67-.09-15.33-.56-22.02-4.94-13.88-9.09-20.98-22.02-21.45-38.57-.05-1.62-.55-2.56-1.82-3.57-4.46-3.55-9.4-3.4-14.51-2.23-2.67.61-3.69,2.44-3.8,5.2-.16,3.97-.35,8-1.19,11.86-1.78,8.1-4.3,15.83-10.36,22.12-16.2,16.85-43.41,15.44-57.06,7.1-.48-.3-1.04-.47-2.18-.99.56,5.79.81,11.09,1.65,16.3.97,5.99,1.93,12.07,3.87,17.78,3.38,9.98,7.63,19.63,14.17,28.09,1.38,1.79,2.55,3.76,3.7,5.72,4.29,7.31,10.18,12.99,17.52,17.13,1.26.71,2.9,1.09,4.35,1.07,4.63-.04,9.26-.39,13.89-.52,22.88-.64,45.77-1.24,68.65-1.92,1.27-.04,3-.24,3.7-1.06,6.54-7.65,13.78-14.9,19.12-23.34,7.98-12.6,13.47-26.55,17.06-41.1,2.3-9.31,3.31-18.77,1.72-28.85Zm-78.2-37.58c13.94-15.58,29.98-26.07,51.7-25.61-3.2-2.46-6.49-4.64-9.73-6.88-6.05-4.17-12.18-8.24-18.07-12.61-7.15-5.31-11.3-12.68-13.45-21.22-.52-2.07-.8-4.2-1.28-6.74-3.61,4.8-8.48,7.1-13.7,8.81-7.25,2.36-14.43,4.99-21.8,6.93-20.99,5.55-36.62,17.56-46.19,37.19-.6,1.24-1.31,2.43-2.17,4,1.49-.07,2.39-.19,3.29-.15,7.15.39,14.37.33,21.44,1.34,10.15,1.44,18.81,6.43,26.63,12.97.82.68,2.31,1.3,3.22,1.03,6.93-2.08,13.71-2.55,20.12.93ZM71.64,461.26c-.45-2.08-.72-3.4-1.02-4.71-1.28-5.64-2.64-11.27-3.83-16.93-2.35-11.2-4.62-22.42-6.89-33.64-.54-2.66-.88-5.35-1.41-8.01-1.22-6.13-2.43-12.26-3.8-18.36-.56-2.52-5.28-4.61-7.22-3.24-10.25,7.21-20.43,14.46-29.58,23.17-8.47,8.06-10.39,17.71-9.11,28.61.49,4.18,2.28,7.7,5.83,10.05,3.09,2.05,6.21,4.21,9.6,5.65,11.86,5.03,23.79,9.88,35.79,14.53,3.49,1.35,7.32,1.84,11.64,2.88ZM330.97,142.05c-11.23-.78-22.49,4.78-33.44,11.67-5.3,3.33-8.76,7.75-9.61,13.78-.53,3.71-.38,7.66.27,11.36,2.36,13.61,9.85,23.64,22.73,28.74,7.34,2.91,15.38,2.8,23.12,1.08,21.52-4.79,40.8-28.61,39.15-52.59-.05-.69-.59-1.56-1.16-1.97-3.33-2.34-6.54-4.94-10.15-6.75-9.01-4.52-18.89-4.82-30.9-5.32Zm-238.91,406.75c-.17.45-.33.9-.5,1.36,2.58,1.17,5.1,2.53,7.76,3.49,11.67,4.22,23.86,5.4,36.16,5.84,11.26.41,22.52.68,33.78,1.18,21.86.97,43.72,2.72,65.59,2.95,30.44.32,60.89-.36,91.34-.81,9.71-.14,19.42-.76,29.12-1.42,17.94-1.23,35.56-4.56,53.08-8.44,3.96-.88,7.64-2.41,10.36-5.69-4.94,2.61-10.35,2.59-15.65,2.75-7.44.22-14.89,0-22.33.09-17.91.21-35.81.48-53.72.74-63.44.9-126.89,1.82-190.33,2.67-7.61.1-15.24-.46-22.82-.06-5.85.31-11.12-1.05-16.39-3.18-1.73-.7-3.62-.99-5.43-1.47Zm352.73-95.72c4.21,2.12,9.19,3.85,14.57,2.87,6.04-1.1,12.23-2.04,17.96-4.11,13.99-5.05,19.63-15.7,17.16-30.29-2.4-14.22-9-26.53-16.62-38.49-4.78-7.49-9.16-15.22-13.74-22.84-.06-.1-.3-.08-.65-.16-4.12,31.37-12.43,61.86-18.69,93.02Zm-228.32-239.99c3.1-.22,5.83-.26,8.53-.62,10.04-1.37,17.78-7.07,24.84-13.75,1.61-1.53,2.58-3.95,3.33-6.13,1.45-4.2,2.74-8.48,3.69-12.81.76-3.43,1-6.98,1.28-10.5.07-.84-.39-2.03-1.03-2.57-2.96-2.53-5.89-5.16-9.16-7.26-12.82-8.21-27.01-9.49-41.69-7.65-3.19.4-6.24,1.94-9.43,2.38-7.07.98-13.03,4.27-18.7,8.27-.57.4-1.16,1.28-1.13,1.92.5,12.33,3.8,23.79,10.76,34.09,4.6,6.8,10.53,11.79,18.82,13.32,3.38.62,6.82.91,9.89,1.31ZM34.72,458.39c1.5,2.03,2.61,3.33,3.5,4.76,5.52,8.89,11.04,17.77,16.45,26.71,8.35,13.81,16.51,27.73,24.97,41.46,2.19,3.55,5.21,6.58,7.85,9.85.25-.18.49-.36.74-.53-.39-1.37-.87-2.72-1.16-4.11-2.51-11.95-5.03-23.9-7.47-35.86-1.99-9.75-3.86-19.52-5.86-29.26-.17-.81-.84-1.95-1.52-2.16-5.62-1.7-11.31-3.17-16.96-4.8-6.59-1.9-13.15-3.88-20.53-6.06Zm-4-110.04c.04.28.03.95.25,1.53,3.15,8.25,8.77,14.09,17.11,17.15,2.06.76,4.04-1.25,3.61-3.42-1.58-7.98-3.16-15.96-4.65-23.95-.36-1.93-1.14-2.39-2.98-1.73-2.39.86-4.84,1.55-7.29,2.22-3.66,1.01-6.01,4.01-6.04,8.2Z"/>
      <path d="m269.43,270.24c-5.21-1.13-10.6-2.23-15.95-3.52-1.4-.34-2.47-.7-3.68.48-1.32,1.29-3.09,1.9-4.64.51-1.65-1.48-1.23-3.54-.02-4.93,1.69-1.93,3.75-3.57,5.85-5.07.46-.33,1.77.36,2.59.77,1.3.65,2.42,1.8,3.77,2.14,9.77,2.45,19.53,1.14,29.17-.68,8.44-1.6,16.78-3.78,25.1-5.97,2.52-.66,4.92-1.72,5.77-5.01.71-2.73,4.72-2.89,6.34-.26,1.26,2.03,2.06,4.44,2.62,6.78.46,1.91-1.57,2.14-2.51,1.73-3.18-1.4-5.15.95-7.69,1.84-7.59,2.67-15.2,5.41-23.01,7.27-7.64,1.82-15.53,2.6-23.73,3.9Z"/>
      <path d="m273.17,238.03c-1.03-.11-1.92.05-2.43-.31-1.05-.75-1.9-1.78-2.84-2.69.97-.73,1.9-2.01,2.93-2.11,4-.37,7.43-2.02,10.14-4.72,1.63-1.63,2.54-4.06,3.54-6.23.67-1.44,1.02-3.09,3.05-2.8,2.15.31,2.63,2.15,2.16,3.71-.81,2.71-1.65,5.67-3.37,7.81-3.37,4.21-8.01,6.69-13.19,7.33Z"/>
      <path d="m329.05,166.03c9.51.53,18.06,2.32,24.63,9.38,2.68,2.88,2.58,7.24-.34,9.88-6.34,5.75-13.91,8.76-22.3,9.88-2.7.36-5.41.65-8.11.93-7.31.74-14.17-.72-20.25-4.83-6.01-4.06-5.94-5.28-2.11-10.92,5.1-7.52,12.63-11.87,21.6-13.51,2.4-.44,4.85-.58,6.9-.81Zm10.84,21.31c-4.31-.02-8.39-.6-11.45-4-2.96-3.29-4.59-7.1-3.6-11.67-7.93.47-17.67,6.87-21.38,13.95,11.78,7.83,24.06,5.48,36.43,1.72Zm-2.32-7.95c2.61.13,5.09-2.05,5.14-4.51.05-2.27-2.12-4.35-4.61-4.43-2.63-.08-4.74,1.84-4.87,4.44-.14,2.57,1.6,4.37,4.35,4.5Z"/>
      <path d="m218.94,202.78c-7.98-.07-15.41-2.12-22.33-6.13-3.21-1.86-4.87-4.84-5.16-8.2-.14-1.6,1.2-3.92,2.59-4.98,7.31-5.57,15.32-9.62,24.74-10.4,10.53-.87,18.73,3.31,25.34,11.14,2.25,2.67,1.89,5.22-.28,8.14-6.25,8.46-15.27,10.11-24.89,10.41Zm-5.23-24.7c-5.49,1.18-9.99,3.49-14,6.93-2.69,2.3-2.86,4.46-.14,6.86.81.71,1.69,1.52,2.68,1.84,4.97,1.6,9.9,3.86,15,4.39,9.35.97,17.63-2.06,24.24-9.78-.97-1.02-1.93-2.03-3.16-3.32-1.46,6.85-10.43,10.86-16.74,8.96-6.55-1.97-9.63-7.86-7.87-15.87Zm13.34-.91c-2.45.09-5.01,3.09-4.86,5.69.13,2.26,2.19,4.23,4.28,4.11,2.18-.13,4.85-3.48,4.71-5.92-.12-2.19-2.01-3.96-4.14-3.88Z"/>
    </g>
  </g>
</svg>