<svg width="57" height="32" viewBox="0 0 57 32" fill="none" xmlns="http://www.w3.org/2000/svg">
<g clip-path="url(#clip0_479_45)">
<path d="M50.5454 13.3333C49.0054 15.96 45.3654 17.6933 41.332 17.6933C40.0187 17.6933 38.7654 17.5133 37.6187 17.18C37.2254 22.2333 34.1787 26.6333 29.532 29.56C32.7254 31.1133 36.5387 32 40.6654 32H40.9987C49.452 32 56.332 27.3133 56.332 21.5533V13.3333H50.5454ZM40.9987 0H40.6654C36.452 0 32.5654 0.933333 29.332 2.56667C30.9587 3.54667 32.392 4.71333 33.5987 6.02C35.432 4.42 38.2187 3.4 41.332 3.4C45.5387 3.4 49.2254 5.23333 50.6854 8H55.9054C54.2587 3.38667 48.0587 0 40.9987 0Z" fill="#3B3B3B"/>
<path d="M36.3067 15.2804C36.1533 12.6204 35.1667 10.1471 33.5333 8.01378C33.4 7.83378 33.26 7.65378 33.1133 7.48044C32.9733 7.31378 32.8267 7.14711 32.6733 6.98044C31.3867 5.56044 29.8 4.32044 27.98 3.31378C27.76 3.18711 27.54 3.06711 27.3133 2.94711C27.0733 2.82711 26.84 2.71378 26.5933 2.60044C23.44 1.12711 19.7067 0.287109 15.6667 0.287109H0V21.6538C0 27.3604 6.88 32.0004 15.3333 32.0004H15.6667C19.7933 32.0004 23.5933 31.1138 26.7867 29.5604C27.0133 29.4538 27.24 29.3404 27.46 29.2271C27.7 29.1004 27.9333 28.9738 28.16 28.8404C32.94 26.0804 36.0533 21.7338 36.3133 16.7271C36.3267 16.5004 36.3333 16.2738 36.3333 16.0404V16.0138C36.3333 15.7671 36.3267 15.5204 36.3067 15.2804Z" fill="#3B3B3B"/>
</g>
<defs>
<clipPath id="clip0_479_45">
<rect width="56.3333" height="32" fill="white"/>
</clipPath>
</defs>
</svg>
