<svg width="403" height="399" viewBox="0 0 403 399" fill="none" xmlns="http://www.w3.org/2000/svg">
<path d="M178.749 23.7528C178.12 18.0892 161.726 12.9058 158.014 11.34C143.794 5.34102 133.807 24.9158 125.713 33.9087C117.871 42.6219 113.659 50.941 108.928 61.5552C106.574 66.8353 101.983 71.0504 100.041 76.3659C96.1883 86.9108 94.1122 97.767 92.4244 108.738C91.1503 117.019 87.7802 126.937 81.5632 132.858C75.5122 138.621 65.7812 149.743 57.5135 151.9C54.9255 152.575 42.9023 157.789 43.5492 158.953C45.982 163.332 49.5129 165.516 51.5187 170.731C57.0948 185.229 59.3115 195.043 49.9671 208.392C45.2356 215.152 39.8847 222.283 34.028 228.14C28.8146 233.353 21.6912 237.862 18.3005 244.643C12.4984 256.247 10.1909 260.514 18.3006 270.651" stroke="black" stroke-width="4" stroke-linecap="round"/>
<path d="M174.941 26.2921C178.914 25.8506 186.461 15.2139 189.893 12.3277C193.401 9.37776 195.508 5.69689 199.696 3.51185C208.824 -1.25041 227.278 7.31939 236.37 9.78874C246.3 12.4859 256.591 16.2356 265.357 21.7783C277.852 29.6799 286.217 47.9717 292.157 60.7092C297.68 72.5515 300.154 85.5805 305.769 97.2422C310.25 106.551 315.243 115.668 320.297 124.677C327.124 136.847 336.432 150.097 351.258 152.958C354.402 153.565 358.902 153.755 362.12 153.17C365.472 152.561 362.258 151.499 359.087 155.145C352.346 162.897 331.649 179.386 341.878 191.889C355.82 208.928 371.7 224.237 385.323 241.752C390.346 248.209 395.258 255.327 397.806 263.122C402.186 276.517 400.108 284.716 391.184 293.641C388.562 296.263 378.884 308.193 375.857 310.063C371.487 312.762 368.614 315.426 364.659 318.697C357.589 324.543 356.151 326.485 347.393 330.864" stroke="black" stroke-width="4" stroke-linecap="round"/>
<path d="M181.289 118.964C181.289 97.6255 149.532 91.8595 133.048 92.305C122.058 92.6021 105.045 98.8655 101.5 109.5" stroke="black" stroke-width="4" stroke-linecap="round"/>
<path d="M181.288 120.234C187.04 120.234 192.114 121.503 197.792 121.503" stroke="black" stroke-width="4" stroke-linecap="round"/>
<path d="M196.522 121.503C197.138 114.727 204.699 106.726 210.345 103.096C220.362 96.6561 226.155 90.1324 238.979 89.766C257.538 89.2357 272.534 91.0676 280.5 107" stroke="black" stroke-width="4" stroke-linecap="round"/>
<path d="M101.311 111.347C101.311 122.495 100.853 132.593 103.85 143.084C105.725 149.647 113.51 156.432 118.379 160.716C126.022 167.442 131.887 171.295 142.428 172.212C154.859 173.293 166.033 160.927 171.415 150.701C173.992 145.805 176.371 141.774 178.75 136.737C180.819 132.355 181.198 126.717 183.828 122.773" stroke="black" stroke-width="4" stroke-linecap="round"/>
<path d="M196.522 125.312C197.036 129.934 201.684 137.349 204.703 140.545C211.956 148.225 215.5 153.5 226 160C243 167.5 258.327 163.282 270 155.5C279.139 149.407 281.402 138.464 282.918 127.851C283.659 122.664 285 113.5 281 108" stroke="black" stroke-width="4" stroke-linecap="round"/>
<path d="M166.054 140.546C165.555 136.054 148.788 130.249 145.108 132.294C138.383 136.03 117.738 144.354 125.431 144.354" stroke="black" stroke-width="4" stroke-linecap="round"/>
<path d="M226.99 141.815C228.218 130.766 259.682 120.874 265.075 131.659" stroke="black" stroke-width="4" stroke-linecap="round"/>
<path d="M265.074 134.198C259.375 139.897 247.975 142.974 240.319 144.989C234.372 146.554 231.108 148.782 228.259 143.084" stroke="black" stroke-width="4" stroke-linecap="round"/>
<path d="M122.892 141.815C130.372 150.23 153.006 149.245 162.246 143.084" stroke="black" stroke-width="4" stroke-linecap="round"/>
<path d="M136.857 148.162C136.857 143.555 135.989 141.815 141.229 141.815C145.051 141.815 148.282 142.277 148.282 146.893" stroke="black" stroke-width="4" stroke-linecap="round"/>
<path d="M249.841 144.354C249.841 142.879 250.627 138.087 249.559 137.019C248.336 135.796 241.437 136.573 240.32 137.442C230.985 144.703 244.417 139.853 246.032 143.085" stroke="black" stroke-width="4" stroke-linecap="round"/>
<path d="M201.6 138.006C201.6 149.22 209.567 156.26 211.827 166.428C212.902 171.266 218.106 170.447 211.121 173.552C206.585 175.568 197.97 174.107 196.522 179.899" stroke="black" stroke-width="4" stroke-linecap="round"/>
<path d="M68.3043 350.01C68.3043 321.764 64.4086 295.119 59.4884 268.058C57.1379 255.13 56.4634 240.004 50.5315 228.14" stroke="black" stroke-width="4" stroke-linecap="round"/>
<path d="M50.5315 225.601C76.0625 224.386 102.739 220.479 127.265 213.612C139.494 210.188 155.19 212.906 167.888 212.906C182.176 212.906 196.482 213.13 210.769 212.906C226.661 212.658 242.239 210.367 258.163 210.367C276.618 210.367 295.819 211.122 313.315 205.29" stroke="black" stroke-width="4" stroke-linecap="round"/>
<path d="M313.315 202.75C313.315 220.866 312.045 239.101 312.045 257.056C312.045 264.763 310.776 272.358 310.776 280.189C310.776 286.628 311.862 294.173 310.494 300.5C306.016 321.21 310.776 344.903 310.776 365.244" stroke="black" stroke-width="4" stroke-linecap="round"/>
<path d="M68.3044 344.933C69.1374 352.429 69.5576 362.74 72.7476 369.758C74.1708 372.889 71.8716 378.262 74.3698 380.761C77.6648 384.056 88.2481 381.715 92.4247 380.761C101.45 378.698 112.366 380.478 121.623 380.478C130.791 380.478 139.96 380.478 149.128 380.478C169.798 380.478 190.299 379.209 210.91 379.209C235.144 379.209 257.875 385.556 282.213 385.556C288.688 385.556 294.049 383.914 299.633 380.478C301.417 379.38 308.099 377.887 308.237 375.4C308.392 372.615 306.923 366.536 309.507 365.245" stroke="black" stroke-width="4" stroke-linecap="round"/>
<path d="M310.776 333.507C318.385 333.507 325.42 334.777 333.062 334.777C337.363 334.777 351.463 332.124 349.848 338.585C346.046 353.792 328.83 362.912 319.027 373.567C314.634 378.343 310.704 382.291 307.955 388.095C306.912 390.297 305.405 392.424 303.159 393.173" stroke="black" stroke-width="4" stroke-linecap="round"/>
<path d="M37.8367 324.295C31.1745 324.295 35.4167 328.668 37.8364 333.507C41.1603 340.155 46.3491 346.698 48.9797 353.537C51.1037 359.06 55.9499 362.049 58.4303 366.514C60.7408 370.673 62.7345 376.884 66.0472 380.196C68.4986 382.648 69.2228 390.313 72.1125 390.634C74.9587 390.951 76.687 394.657 80.0115 395.43C84.3359 396.436 88.2601 396.982 92.7064 396.982C99.107 396.982 105.439 395.89 111.467 395.712C131.733 395.116 152.124 395.712 172.402 395.712C174.765 395.712 176.015 395.463 178.044 394.725C187.088 391.436 199.582 396.659 208.935 396.982C214.237 397.165 219.392 395.91 224.733 395.712C239.013 395.183 252.991 395.218 267.331 395.712C274.762 395.968 292.958 398.704 299.35 394.443" stroke="black" stroke-width="4" stroke-linecap="round"/>
<path d="M116.545 162.126C116.545 176.492 119.91 184.773 129.169 195.768C132.933 200.238 141.747 211.5 148.5 211.5" stroke="black" stroke-width="4" stroke-linecap="round"/>
<path d="M271.5 155.5C271.5 168.91 264.923 178.951 258.797 190.69C256.12 195.821 248.348 209.051 242.5 211" stroke="black" stroke-width="4" stroke-linecap="round"/>
<path d="M56.8791 253.53C50.4907 253.53 45.0292 256.001 39.0358 258.044C34.0982 259.727 27.7073 262.182 24.1546 266.225C22.1241 268.536 20.1302 267.87 18.0893 269.54C13.12 273.606 8.76577 278.652 4.26604 283.152C0.881184 286.536 2.29129 293.189 2.29129 297.892C2.29129 313.051 23.5773 317.662 34.5926 323.07C41.4627 326.442 49.4854 328.12 55.8918 332.238C60.4921 335.196 62.4619 336.194 67.1292 338.527" stroke="black" stroke-width="4" stroke-linecap="round"/>
<path d="M312.046 248.451C316.566 252.734 323.83 259.174 327.686 264.082C331.107 268.435 340.363 275.866 343.013 280.503C353.891 291.155 357.225 298.15 360.53 302.399C362.963 305.528 353.961 335.242 312.046 347.285" stroke="black" stroke-width="4" stroke-linecap="round"/>
<path d="M180.501 46.9358C178.878 58.7424 170.314 69.2242 162.793 77.9986C160.273 80.9393 156.733 82.5647 153.477 84.5184C152.51 85.0982 151.932 85.9848 151.034 86.6261C150.044 87.333 148.911 87.6087 147.843 88.1428C147.523 88.3029 139.019 92.366 139.019 91.255" stroke="black" stroke-width="4" stroke-linecap="round"/>
<path d="M179.438 45.8721C179.524 46.6457 180.562 47.6624 181.053 48.1964C182.319 49.5739 183.318 51.2554 184.559 52.6874C187.665 56.2717 191.229 58.5434 195.393 60.6254C202.226 64.0419 208.404 68.2768 215.563 71.0454C219.502 72.5687 224.316 73.9516 227.854 76.2849C230.565 78.0733 233.661 79.4992 236.659 80.7562C238.151 81.382 240.149 81.823 241.445 82.7653C242.394 83.4553 243.84 84 245 84C247.105 84 247.481 84.7523 249.403 85.582C250.483 86.0486 251.707 86.8158 252.653 87.5518C253.672 88.3443 255.539 87.6812 256.021 89.1276" stroke="black" stroke-width="4" stroke-linecap="round"/>
<path d="M201.522 200.924C206.902 198.772 212.212 197.033 216.017 192.508C216.385 192.07 216.803 191.551 217.038 191.022C217.246 190.554 217.14 190.054 217.344 189.605C217.447 189.378 217.682 188.839 217.9 188.72C218.083 188.62 219.424 190.347 219.578 190.614C219.902 191.173 220.556 191.773 221.121 192.1C221.414 192.27 221.801 192.28 221.938 192.554" stroke="black" stroke-width="3" stroke-linecap="round"/>
<path d="M245.919 139.245C245.335 140.24 244.727 141.189 244.258 142.259C243.718 143.492 244.724 143.233 245.56 142.824C246.133 142.544 247.067 141.943 246.99 141.249C246.873 140.197 244.307 138.531 243.299 139.279C241.433 140.666 243.95 142.79 245.474 142.79C246.613 142.79 247.214 142.354 247.992 141.54C248.375 141.138 249.15 139.847 248.523 139.331C247.313 138.337 244.823 137.535 243.445 138.637C242.212 139.624 240.217 140.567 240.217 142.294C240.217 143.573 240.149 144.649 241.527 145.179C242.625 145.602 243.947 145.438 245.072 145.265C246.225 145.087 247.382 144.421 247.923 143.338C248.232 142.721 248.251 142.167 248.231 141.489C248.204 140.517 246.507 139.109 245.611 138.86C242.819 138.084 240.965 139.152 239.138 141.24C238.622 141.829 238.115 143.181 238.829 143.869C240.442 145.422 241.85 146.644 244.13 146.644C246.241 146.644 248.578 146.395 249.465 144.177" stroke="black" stroke-width="3" stroke-linecap="round"/>
<path d="M140.123 144.838C140.917 144.838 143.213 145.057 142.502 144.702C142.057 144.479 140.98 144.603 140.474 144.663C140.217 144.693 140.287 145.177 140.298 145.365C140.316 145.665 141.236 145.818 141.468 145.853C142.024 145.935 143.66 146.014 144.121 145.502C145.164 144.343 140.393 143.506 140.298 144.312C140.147 145.592 143.38 145.365 144.238 145.365C144.999 145.365 145.467 145.394 145.916 146.067" stroke="black" stroke-width="3" stroke-linecap="round"/>
<path d="M247.485 144.465C247.108 144.566 246.819 144.871 246.429 144.923C246.084 144.969 245.73 145.091 245.383 145.099C244.768 145.113 244.448 144.906 244.044 144.465C243.596 143.976 243.538 143.276 244.004 142.785C244.451 142.314 244.843 142.354 245.398 142.146C245.742 142.017 245.893 141.865 246.273 141.98C246.991 142.199 247.799 142.851 248.109 143.55C248.588 144.627 247.548 144.827 246.67 144.827" stroke="white" stroke-width="3" stroke-linecap="round"/>
<path d="M144.052 147.252C143.702 147.953 143.078 147.661 142.491 147.424C142.268 147.334 141.898 147.148 141.796 146.891C141.603 146.409 141.93 146.018 142.258 145.691C142.554 145.394 142.971 145.119 143.403 145.103C143.695 145.092 143.997 145.604 143.997 145.874" stroke="black" stroke-width="3" stroke-linecap="round"/>
<path d="M142.84 147.803C142.447 147.83 142.134 147.931 141.793 147.693C141.488 147.481 141.044 146.961 141.021 146.579C140.97 145.754 142.088 145.339 142.736 145.195C143.463 145.033 144.135 145.053 144.6 145.682C144.958 146.165 145.138 146.605 144.726 147.142C144.32 147.67 143.396 148.004 142.739 147.883C141.829 147.715 141.125 146.046 141.793 145.378" stroke="black" stroke-width="3" stroke-linecap="round"/>
<path d="M139.202 144.993C139.213 145.143 139.428 145.406 139.355 145.544C139.318 145.615 139.095 145.599 139.257 145.599" stroke="black" stroke-width="3" stroke-linecap="round"/>
<path d="M140.249 147.417C140.285 147.136 141.454 147.07 141.682 146.977C142.113 146.8 142.524 146.973 142.932 146.701C143.226 146.505 143.336 146.516 143.336 146.15C143.336 145.732 142.895 145.764 142.564 145.764C142.077 145.764 141.715 145.997 141.297 146.217C141.017 146.364 140.856 146.684 140.856 146.989C140.856 147.579 141.583 147.583 142.013 147.583C142.254 147.583 142.416 147.401 142.632 147.307C142.963 147.163 143.242 147.142 143.605 147.142C143.871 147.142 144.14 146.798 144.245 146.566C144.364 146.304 144.274 145.821 144.156 145.571C143.966 145.167 143.465 144.827 143.063 144.686C142.097 144.348 141.158 144.825 140.525 145.599C140.185 146.015 139.903 147.142 140.745 147.142" stroke="white" stroke-width="3" stroke-linecap="round"/>
<path d="M150.588 144.932C150.338 143.746 149.9 142.57 148.82 141.868C148.364 141.571 147.813 141.258 147.267 141.154C146.571 141.021 145.862 140.567 145.214 140.277C144.154 139.802 142.688 139.643 141.525 139.643C140.499 139.643 139.473 140.373 138.707 140.986C138.415 141.22 138.131 141.477 137.788 141.695C137.621 141.802 138.225 141.372 138.311 141.322C139.069 140.876 139.847 140.534 140.634 140.146C141.583 139.678 142.524 139.811 143.582 139.811C144.632 139.811 145.903 140.186 146.814 140.688C147.205 140.902 147.707 140.957 148.051 141.257C148.321 141.492 148.601 141.734 148.895 141.942C149.308 142.235 149.638 142.589 150.001 142.889C150.521 143.32 150.866 143.871 151.218 144.419C151.447 144.775 151.42 145.174 151.68 145.52" stroke="black" stroke-width="3" stroke-linecap="round"/>
</svg>
