<svg width="58" height="32" viewBox="0 0 58 32" fill="none" xmlns="http://www.w3.org/2000/svg">
<g clip-path="url(#clip0_1029_8318)">
<path d="M51.3774 13.3333C49.8374 15.96 46.1974 17.6933 42.1641 17.6933C40.8507 17.6933 39.5974 17.5133 38.4507 17.18C38.0574 22.2333 35.0107 26.6333 30.3641 29.56C33.5574 31.1133 37.3707 32 41.4974 32H41.8307C50.2841 32 57.1641 27.3133 57.1641 21.5533V13.3333H51.3774ZM41.8307 0H41.4974C37.2841 0 33.3974 0.933333 30.1641 2.56667C31.7907 3.54667 33.2241 4.71333 34.4307 6.02C36.2641 4.42 39.0507 3.4 42.1641 3.4C46.3707 3.4 50.0574 5.23333 51.5174 8H56.7374C55.0907 3.38667 48.8907 0 41.8307 0Z" fill="#3B3B3B"/>
<path d="M37.1387 15.2804C36.9854 12.6204 35.9987 10.1471 34.3654 8.01378C34.232 7.83378 34.092 7.65378 33.9454 7.48044C33.8054 7.31378 33.6587 7.14711 33.5054 6.98044C32.2187 5.56044 30.632 4.32044 28.812 3.31378C28.592 3.18711 28.372 3.06711 28.1454 2.94711C27.9054 2.82711 27.672 2.71378 27.4254 2.60044C24.272 1.12711 20.5387 0.287109 16.4987 0.287109H0.832031V21.6538C0.832031 27.3604 7.71203 32.0004 16.1654 32.0004H16.4987C20.6254 32.0004 24.4254 31.1138 27.6187 29.5604C27.8454 29.4538 28.072 29.3404 28.292 29.2271C28.532 29.1004 28.7654 28.9738 28.992 28.8404C33.772 26.0804 36.8854 21.7338 37.1454 16.7271C37.1587 16.5004 37.1654 16.2738 37.1654 16.0404V16.0138C37.1654 15.7671 37.1587 15.5204 37.1387 15.2804Z" fill="#3B3B3B"/>
</g>
<defs>
<clipPath id="clip0_1029_8318">
<rect width="56.3333" height="32" fill="white" transform="translate(0.832031)"/>
</clipPath>
</defs>
</svg>
