<svg width="30" height="31" viewBox="0 0 30 31" fill="none" xmlns="http://www.w3.org/2000/svg">
<path d="M29.375 15.5C29.375 16.7656 28.3203 17.8203 27.125 17.8203H17V27.9453C17 29.1406 15.9453 30.125 14.75 30.125C13.4844 30.125 12.5 29.1406 12.5 27.9453V17.8203H2.375C1.10938 17.8203 0.125 16.7656 0.125 15.5C0.125 14.3047 1.10938 13.3203 2.375 13.3203H12.5V3.19531C12.5 1.92969 13.4844 0.875 14.75 0.875C15.9453 0.875 17 1.92969 17 3.19531V13.3203H27.125C28.3203 13.25 29.375 14.3047 29.375 15.5Z" fill="#3B3B3B"/>
</svg>
