<svg width="245" height="244" viewBox="0 0 245 244" fill="none" xmlns="http://www.w3.org/2000/svg">
<path d="M109.023 15.1136C108.642 11.6842 98.7155 8.5457 96.4682 7.59765C87.8581 3.96525 81.8105 15.8177 76.9098 21.2629C72.1615 26.5388 69.6113 31.576 66.7463 38.0029C65.3211 41.1999 62.5416 43.7522 61.3656 46.9707C59.0326 53.3556 57.7755 59.9291 56.7536 66.5718C55.9821 71.5861 53.9415 77.5915 50.1771 81.1766C46.5133 84.666 40.6212 91.4007 35.6151 92.7067C34.048 93.1154 26.768 96.2721 27.1597 96.9771C28.6328 99.6286 30.7707 100.951 31.9852 104.109C35.3615 112.887 36.7037 118.83 31.0458 126.913C28.1808 131.005 24.9409 135.323 21.3947 138.87C18.2379 142.026 13.9247 144.756 11.8717 148.862C8.35848 155.889 6.96128 158.472 11.8717 164.61" stroke="black" stroke-width="4" stroke-linecap="round"></path>
<path d="M219.497 93.5613C219.687 93.5365 219.872 93.5079 220.051 93.4754C221.614 93.1914 220.82 92.745 219.497 93.5613Z" fill="white"></path>
<path d="M106.715 16.651C109.121 16.3837 113.69 9.94319 115.768 8.19562C117.892 6.40943 119.168 4.18066 121.704 2.85762C127.231 -0.0259202 138.405 5.16308 143.91 6.65827C149.923 8.29138 156.154 10.5618 161.461 13.9179C169.027 18.7024 174.092 29.778 177.689 37.4905C181.033 44.661 182.531 52.5501 185.931 59.6112C188.644 65.2474 191.668 70.7682 194.728 76.223C198.861 83.5917 204.497 91.6149 213.475 93.3473C215.378 93.7146 218.103 93.8297 220.051 93.4754C222.081 93.1064 220.135 92.4633 218.215 94.6712C214.133 99.365 201.601 109.349 207.795 116.92C216.236 127.237 225.852 136.506 234.101 147.112C237.142 151.022 240.116 155.331 241.659 160.051C244.311 168.162 243.053 173.127 237.649 178.531C236.062 180.118 230.202 187.342 228.369 188.474C225.723 190.108 223.983 191.721 221.589 193.702C217.308 197.242 216.437 198.417 211.134 201.069" stroke="black" stroke-width="4" stroke-linecap="round"></path>
<path d="M110.558 72.7638C110.558 59.8432 91.3294 56.3519 81.3485 56.6217C74.694 56.8015 64.3925 60.5941 62.2461 67.0332" stroke="black" stroke-width="4" stroke-linecap="round"></path>
<path d="M110.559 73.5322C114.041 73.5322 117.113 74.3009 120.551 74.3009" stroke="black" stroke-width="4" stroke-linecap="round"></path>
<path d="M119.781 74.3016C120.154 70.1985 124.732 65.3539 128.151 63.1559C134.216 59.2568 137.724 55.3067 145.489 55.0848C156.726 54.7638 165.806 55.873 170.63 65.52" stroke="black" stroke-width="4" stroke-linecap="round"></path>
<path d="M62.1324 68.1514C62.1324 74.9014 61.8548 81.0157 63.6698 87.3682C64.805 91.3416 69.5189 95.45 72.4668 98.0441C77.095 102.117 80.646 104.45 87.0288 105.005C94.5556 105.659 101.321 98.1721 104.58 91.9802C106.141 89.0153 107.581 86.5749 109.021 83.5248C110.274 80.8716 110.504 77.4579 112.096 75.0694" stroke="black" stroke-width="4" stroke-linecap="round"></path>
<path d="M119.781 76.6072C120.092 79.4061 122.907 83.8958 124.735 85.8312C129.126 90.481 131.272 93.6752 137.63 97.6109C147.923 102.152 157.204 99.5984 164.272 94.8862C169.806 91.1971 171.176 84.5707 172.094 78.1445C172.542 75.0038 173.354 69.4552 170.932 66.125" stroke="black" stroke-width="4" stroke-linecap="round"></path>
<path d="M101.333 85.8313C101.031 83.1116 90.8786 79.5968 88.65 80.8349C84.5782 83.0971 72.0776 88.1373 76.7356 88.1373" stroke="black" stroke-width="4" stroke-linecap="round"></path>
<path d="M138.23 86.5998C138.974 79.9099 158.025 73.9199 161.291 80.4504" stroke="black" stroke-width="4" stroke-linecap="round"></path>
<path d="M161.291 81.9883C157.841 85.4391 150.938 87.3022 146.302 88.522C142.701 89.4696 140.725 90.8186 139 87.369" stroke="black" stroke-width="4" stroke-linecap="round"></path>
<path d="M75.1992 86.5996C79.7282 91.6948 93.4328 91.0984 99.028 87.3683" stroke="black" stroke-width="4" stroke-linecap="round"></path>
<path d="M83.6575 90.443C83.6575 87.6531 83.132 86.5996 86.3052 86.5996C88.6191 86.5996 90.5756 86.8796 90.5756 89.6743" stroke="black" stroke-width="4" stroke-linecap="round"></path>
<path d="M152.067 88.1378C152.067 87.2448 152.543 84.3434 151.897 83.6966C151.156 82.956 146.979 83.4267 146.302 83.9528C140.65 88.349 148.783 85.4123 149.761 87.3691" stroke="black" stroke-width="4" stroke-linecap="round"></path>
<path d="M122.856 84.2939C122.856 91.0837 127.68 95.3467 129.048 101.504C129.699 104.433 132.85 103.937 128.621 105.817C125.874 107.038 120.658 106.153 119.781 109.66" stroke="black" stroke-width="4" stroke-linecap="round"></path>
<path d="M42.1481 212.662C42.1481 195.559 39.7893 179.425 36.8101 163.04C35.3869 155.212 34.9785 146.053 31.3867 138.869" stroke="black" stroke-width="4" stroke-linecap="round"></path>
<path d="M31.3867 137.333C46.8457 136.597 62.9982 134.231 77.8486 130.073C85.2531 128 94.7571 129.646 102.446 129.646C111.097 129.646 119.76 129.781 128.41 129.646C138.033 129.496 147.466 128.109 157.107 128.109C168.282 128.109 179.908 128.565 190.502 125.034" stroke="black" stroke-width="4" stroke-linecap="round"></path>
<path d="M190.499 123.496C190.499 134.465 189.731 145.507 189.731 156.378C189.731 161.045 188.962 165.644 188.962 170.385C188.962 174.284 189.62 178.852 188.791 182.684C186.08 195.224 188.962 209.569 188.962 221.886" stroke="black" stroke-width="4" stroke-linecap="round"></path>
<path d="M42.1484 209.588C42.6528 214.127 42.9072 220.37 44.8388 224.62C45.7005 226.515 44.3084 229.769 45.821 231.282C47.8161 233.277 54.2243 231.86 56.7532 231.282C62.2178 230.032 68.8276 231.111 74.4326 231.111C79.9842 231.111 85.5357 231.111 91.0872 231.111C103.603 231.111 116.016 230.342 128.496 230.342C143.17 230.342 156.933 234.185 171.67 234.185C175.591 234.185 178.837 233.191 182.217 231.111C183.298 230.446 187.344 229.541 187.427 228.036C187.521 226.349 186.632 222.669 188.196 221.887" stroke="black" stroke-width="4" stroke-linecap="round"></path>
<path d="M188.964 202.669C193.571 202.669 197.83 203.438 202.458 203.438C205.062 203.438 213.6 201.831 212.622 205.744C210.32 214.951 199.895 220.473 193.96 226.925C191.299 229.817 188.92 232.208 187.255 235.722C186.624 237.055 185.712 238.343 184.352 238.797" stroke="black" stroke-width="4" stroke-linecap="round"></path>
<path d="M23.6999 197.091C19.6659 197.091 22.2346 199.739 23.6997 202.669C25.7123 206.694 28.8541 210.656 30.4469 214.797C31.733 218.141 34.6674 219.951 36.1693 222.654C37.5683 225.173 38.7754 228.933 40.7813 230.939C42.2656 232.423 42.7041 237.065 44.4538 237.259C46.1772 237.451 47.2237 239.695 49.2367 240.163C51.8551 240.772 54.2312 241.103 56.9234 241.103C60.799 241.103 64.6328 240.441 68.2827 240.334C80.5542 239.973 92.9009 240.334 105.179 240.334C106.61 240.334 107.366 240.183 108.595 239.736C114.071 237.745 121.637 240.907 127.3 241.103C130.51 241.213 133.631 240.454 136.865 240.334C145.512 240.014 153.975 240.034 162.658 240.334C167.158 240.489 178.175 242.146 182.046 239.565" stroke="black" stroke-width="4" stroke-linecap="round"></path>
<path d="M71.3555 98.8984C71.3555 107.597 73.3931 112.611 78.9995 119.268C81.2786 121.975 86.6155 128.794 90.7042 128.794" stroke="black" stroke-width="4" stroke-linecap="round"></path>
<path d="M165.181 94.8857C165.181 103.005 161.198 109.085 157.489 116.194C155.868 119.3 151.162 127.311 147.621 128.491" stroke="black" stroke-width="4" stroke-linecap="round"></path>
<path d="M35.2292 154.243C31.361 154.243 28.0541 155.739 24.4251 156.976C21.4354 157.995 17.5657 159.482 15.4146 161.93C14.1851 163.329 12.9778 162.926 11.7421 163.937C8.73315 166.399 6.09667 169.454 3.37208 172.179C1.32256 174.228 2.17637 178.256 2.17637 181.104C2.17637 190.283 15.065 193.075 21.7348 196.349C25.8946 198.391 30.7523 199.407 34.6314 201.901C37.4169 203.691 38.6096 204.296 41.4356 205.709" stroke="black" stroke-width="4" stroke-linecap="round"></path>
<path d="M189.73 151.168C192.468 153.761 196.866 157.66 199.201 160.632C201.272 163.268 206.877 167.768 208.481 170.576C215.068 177.025 217.087 181.261 219.088 183.833C220.561 185.728 215.11 203.72 189.73 211.012" stroke="black" stroke-width="4" stroke-linecap="round"></path>
<path d="M110.083 29.1504C109.1 36.2993 103.914 42.646 99.3604 47.9589C97.8342 49.7395 95.6907 50.7237 93.7191 51.9066C93.134 52.2577 92.7838 52.7945 92.2402 53.1828C91.6409 53.6108 90.9548 53.7778 90.308 54.1012C90.1141 54.1981 84.9648 56.6583 84.9648 55.9856" stroke="black" stroke-width="4" stroke-linecap="round"></path>
<path d="M109.438 28.5068C109.49 28.9752 110.118 29.5909 110.415 29.9142C111.182 30.7483 111.787 31.7665 112.538 32.6335C114.419 34.8038 116.577 36.1793 119.098 37.44C123.236 39.5087 126.977 42.0729 131.311 43.7492C133.696 44.6716 136.612 45.509 138.753 46.9217C140.395 48.0046 142.27 48.868 144.085 49.6291C144.988 50.0081 146.198 50.2751 146.983 50.8456C147.557 51.2634 148.433 51.5932 149.135 51.5932C150.41 51.5932 150.638 52.0488 151.801 52.5512C152.456 52.8337 153.196 53.2982 153.769 53.7438C154.386 54.2237 155.517 53.8222 155.809 54.698" stroke="black" stroke-width="4" stroke-linecap="round"></path>
<path d="M122.809 122.391C126.066 121.088 129.282 120.035 131.585 117.295C131.809 117.03 132.061 116.715 132.204 116.396C132.33 116.112 132.265 115.809 132.389 115.537C132.451 115.4 132.594 115.073 132.726 115.002C132.836 114.941 133.648 115.987 133.742 116.148C133.938 116.487 134.334 116.85 134.676 117.048C134.854 117.151 135.087 117.157 135.17 117.323" stroke="black" stroke-width="3" stroke-linecap="round"></path>
<path d="M151.271 85.0963C151.589 85.3578 151.312 85.9485 151.077 86.2767C151.087 86.3198 151.093 86.362 151.094 86.4029C151.106 86.8137 151.095 87.1488 150.908 87.5228C150.58 88.1782 149.879 88.5819 149.181 88.6894C148.5 88.7942 147.7 88.8933 147.035 88.6375C146.2 88.3166 146.241 87.6649 146.241 86.8902C146.241 85.8449 147.449 85.2736 148.196 84.6763C148.199 84.6737 148.203 84.6711 148.206 84.6685C149.042 84.0125 150.541 84.4966 151.271 85.0963Z" fill="white"></path>
<path d="M149.694 85.0444C149.34 85.6465 148.972 86.2215 148.689 86.8695C148.362 87.6157 148.97 87.459 149.477 87.2117C149.824 87.0422 150.389 86.6782 150.342 86.2577C150.272 85.621 148.718 84.6117 148.108 85.0652C146.978 85.9046 148.502 87.191 149.425 87.191C150.114 87.191 150.478 86.9271 150.949 86.434C151.181 86.1905 151.65 85.4086 151.271 85.0963C150.538 84.4942 149.031 84.0087 148.196 84.6763C147.449 85.2736 146.241 85.8449 146.241 86.8902C146.241 87.6649 146.2 88.3166 147.035 88.6375C147.7 88.8933 148.5 88.7942 149.181 88.6894C149.879 88.5819 150.58 88.1782 150.908 87.5228C151.095 87.1488 151.106 86.8137 151.094 86.4029C151.077 85.8147 150.05 84.9618 149.508 84.8111C147.817 84.3415 146.694 84.9882 145.588 86.2525C145.276 86.609 144.969 87.4277 145.401 87.8442C146.378 88.7848 147.23 89.5241 148.611 89.5241C149.889 89.5241 151.304 89.3734 151.841 88.0309" stroke="black" stroke-width="3" stroke-linecap="round"></path>
<path d="M85.7428 88.4328C85.7517 88.3992 85.7657 88.3705 85.787 88.351C85.7462 88.283 85.7283 88.204 85.7391 88.1123C85.7942 87.644 88.46 88.0927 88.113 88.7501C88.0986 88.7773 88.0791 88.8048 88.054 88.8327C87.7748 89.1429 86.7842 89.095 86.4478 89.0453C86.3067 89.0245 85.7498 88.9318 85.7391 88.75C85.7349 88.678 85.7161 88.5335 85.7428 88.4328Z" fill="white"></path>
<path d="M85.6328 88.4311C86.1139 88.4311 87.504 88.5636 87.0737 88.3485C86.8041 88.2137 86.1521 88.2888 85.8454 88.3248C85.6898 88.3432 85.7324 88.6365 85.7391 88.75C85.7498 88.9318 86.3067 89.0245 86.4478 89.0453C86.7842 89.095 87.7748 89.1429 88.054 88.8327C88.6852 88.1314 85.7965 87.6246 85.7391 88.1123C85.6479 88.8877 87.6052 88.75 88.1249 88.75C88.5853 88.75 88.8691 88.7679 89.1406 89.1752" stroke="black" stroke-width="3" stroke-linecap="round"></path>
<path d="M150 88.4815C150.068 88.4725 150.13 88.451 150.191 88.4234C150.712 88.4165 151.299 88.2841 151.018 87.65C150.83 87.227 150.341 86.832 149.906 86.6996C149.676 86.6296 149.584 86.722 149.376 86.8001C149.04 86.9261 148.803 86.9018 148.532 87.187C148.25 87.4844 148.285 87.9082 148.556 88.2043C148.801 88.4709 148.995 88.5966 149.367 88.5881C149.577 88.5833 149.791 88.5094 150 88.4815Z" fill="white"></path>
<path d="M150.64 88.2043C150.412 88.2652 150.236 88.45 150 88.4815C149.791 88.5094 149.577 88.5833 149.367 88.5881C148.995 88.5966 148.801 88.4709 148.556 88.2043C148.285 87.9082 148.25 87.4844 148.532 87.187C148.803 86.9018 149.04 86.9261 149.376 86.8001C149.584 86.722 149.676 86.6296 149.906 86.6996C150.341 86.832 150.83 87.227 151.018 87.65C151.307 88.3021 150.678 88.4236 150.146 88.4236" stroke="white" stroke-width="3" stroke-linecap="round"></path>
<path d="M88.0105 89.8924C87.7984 90.3166 87.4207 90.1398 87.065 89.9962C86.9301 89.9417 86.7064 89.8291 86.6442 89.6736C86.5275 89.3818 86.7256 89.1454 86.9241 88.9469C87.1035 88.7674 87.3559 88.6006 87.6175 88.5909C87.7945 88.5844 87.9771 88.8942 87.9771 89.0581" stroke="black" stroke-width="3" stroke-linecap="round"></path>
<path d="M87.109 90.2423C86.945 90.2597 86.7994 90.2677 86.644 90.1592C86.4599 90.0307 86.1909 89.7157 86.1768 89.4844C86.1614 89.2332 86.3248 89.0448 86.541 88.9084C86.7547 88.7736 87.0199 88.6897 87.215 88.6464C87.6552 88.5486 88.0622 88.5607 88.344 88.9412C88.5608 89.2339 88.6697 89.5002 88.42 89.8255C88.1744 90.1453 87.6149 90.3474 87.2168 90.2741C87.1802 90.2674 87.1442 90.2566 87.109 90.2423Z" fill="white"></path>
<path d="M87.278 90.2259C87.04 90.2418 86.8506 90.3034 86.644 90.1592C86.4599 90.0307 86.1909 89.7157 86.1768 89.4844C86.1462 88.9849 86.8227 88.7336 87.215 88.6464C87.6552 88.5486 88.0622 88.5607 88.344 88.9412C88.5608 89.2339 88.6697 89.5002 88.42 89.8255C88.1744 90.1453 87.6149 90.3474 87.2168 90.2741C86.6659 90.1726 86.24 89.1616 86.644 88.7576" stroke="black" stroke-width="3" stroke-linecap="round"></path>
<path d="M85.0879 88.8917C85.0671 88.8922 85.0725 88.8932 85.0879 88.8917V88.8917Z" fill="white"></path>
<path d="M85.0764 88.5244C85.0831 88.6156 85.2131 88.775 85.1691 88.8581C85.1462 88.9014 85.0113 88.8915 85.1098 88.8915" stroke="black" stroke-width="3" stroke-linecap="round"></path>
<path d="M86.5785 89.7251C86.5078 89.7541 86.2883 89.7786 86.0876 89.8184C86.0813 89.7924 86.0779 89.7638 86.0779 89.7325C86.0779 89.5477 86.1758 89.3543 86.3449 89.2653C86.5984 89.1319 86.8175 88.9909 87.1124 88.9909C87.3127 88.9909 87.5796 88.9716 87.5796 89.2245C87.5796 89.446 87.5133 89.4393 87.3349 89.5582C87.088 89.7228 86.8394 89.618 86.5785 89.7251Z" fill="white"></path>
<path d="M85.7109 89.992C85.7322 89.8214 86.4403 89.7818 86.5785 89.7251C86.8394 89.618 87.088 89.7228 87.3349 89.5582C87.5133 89.4393 87.5796 89.446 87.5796 89.2245C87.5796 88.9716 87.3127 88.9909 87.1124 88.9909C86.8175 88.9909 86.5984 89.1319 86.3449 89.2653C86.1758 89.3543 86.0779 89.5477 86.0779 89.7325C86.0779 90.0899 86.5182 90.0921 86.7787 90.0921C86.9243 90.0921 87.0228 89.982 87.1532 89.9253C87.3539 89.838 87.5228 89.8252 87.7427 89.8252C87.9039 89.8252 88.0665 89.6168 88.1302 89.4767C88.2023 89.318 88.1475 89.0252 88.0764 88.8741C87.9612 88.6292 87.6576 88.4234 87.4146 88.3384C86.8295 88.1336 86.2612 88.4221 85.8777 88.8908C85.6716 89.1427 85.5013 89.8252 86.0112 89.8252" stroke="white" stroke-width="3" stroke-linecap="round"></path>
<path d="M90.9008 86.6315C91.0419 86.7232 91.1649 86.8283 91.2726 86.9439C91.1699 86.8514 91.0635 86.7599 90.946 86.6767C90.8957 86.6411 90.8461 86.6038 90.7971 86.5655C90.5433 86.4076 90.2507 86.2547 89.9602 86.1993C89.5391 86.1191 89.1098 85.8439 88.7174 85.6683C88.4256 85.5378 88.0832 85.4465 87.7302 85.3859C87.7298 85.3859 87.7293 85.3859 87.7289 85.3859C87.0886 85.3859 86.5185 85.3058 85.9437 85.5892C85.4677 85.824 84.9966 86.0311 84.5371 86.301C84.5291 86.3057 84.5134 86.316 84.493 86.3298C84.4074 86.3981 84.3181 86.4651 84.2208 86.527C84.1352 86.5814 84.3828 86.4045 84.493 86.3298C84.5904 86.2522 84.683 86.173 84.7772 86.0976C85.2412 85.7264 85.8625 85.2842 86.4832 85.2842C86.8676 85.2842 87.3065 85.313 87.7302 85.3859C88.366 85.3862 89.1345 85.6134 89.6863 85.9169C89.9227 86.0469 90.2265 86.0801 90.4348 86.2615C90.5524 86.3639 90.6728 86.4682 90.7971 86.5655C90.8325 86.5875 90.8671 86.6096 90.9008 86.6315Z" fill="white"></path>
<path d="M91.9713 88.4872C91.82 87.7686 91.5547 87.0565 90.9008 86.6315C90.6248 86.452 90.2911 86.2624 89.9602 86.1993C89.5391 86.1191 89.1098 85.8439 88.7174 85.6683C88.0752 85.381 87.1878 85.2842 86.4832 85.2842C85.8625 85.2842 85.2412 85.7264 84.7772 86.0976C84.6001 86.2393 84.4286 86.3947 84.2208 86.527C84.1195 86.5915 84.4854 86.3314 84.5371 86.301C84.9966 86.0311 85.4677 85.824 85.9437 85.5892C86.5185 85.3058 87.0886 85.3859 87.7289 85.3859C88.3648 85.3859 89.1341 85.6132 89.6863 85.9169C89.9227 86.0469 90.2265 86.0801 90.4348 86.2615C90.5987 86.4042 90.7681 86.5506 90.946 86.6767C91.1959 86.8537 91.3959 87.0682 91.6154 87.2501C91.9304 87.511 92.1393 87.8447 92.3526 88.1765C92.4912 88.392 92.475 88.6335 92.6323 88.8431" stroke="black" stroke-width="3" stroke-linecap="round"></path>
</svg>
